<svg xmlns="http://www.w3.org/2000/svg" xmlns:xlink="http://www.w3.org/1999/xlink" version="1.1" x="0px" y="0px" viewBox="0 0 188.667 235" enable-background="new 0 0 188.667 188" xml:space="preserve"><polygon points="35.528,54.748 49.431,25.948 51.02,22.655 23.874,9.554 6.046,46.487 33.192,59.586 "/><path d="M78.233,76.115c1.914,0.97,5.419,2.357,9.501,3.64c5.607,1.761,12.308,3.322,17.526,3.322c1.127,0,2.175-0.082,3.136-0.241  c1.969-0.326,3.547-1.005,4.491-2.173c11.727-12.889-21.541-14.124-24.562-20.555c2.05-1.993,4.966-2.778,8.284-2.778  c9.372,0,21.945,6.263,27.233,9.226c7.026,3.932,13.503,8.823,19.435,14.255c2.775,3.075,6.796,7.611,10.877,7.611  c1.297,0,2.601-0.458,3.872-1.568c-0.034,0.029-0.065,0.058-0.096,0.084c0.03-0.026,0.064-0.055,0.101-0.086  c10.653-9.103-21.062-33.009-27.691-38.319C116.373,37.337,99.2,27.256,80.778,27.256c-0.531,0-1.062,0.009-1.595,0.025  c-3.066,0.099-14.628,4.553-17.742,4.553c-0.26,0-0.46-0.031-0.593-0.098l-8.538-4.328L38.379,56.271  C51.502,63.295,64.69,70.336,78.233,76.115z"/><path d="M136.607,126.501l-26.47-40.97c-1.417,0.358-3.039,0.545-4.877,0.545c-6.212,0-14.438-2.071-20.771-4.226L60.603,97.279  l18.879,29.222H7.184v59h178v-59H136.607z M179.184,179.501h-166v-47h70.174l13.027,20.163H56.489v7h81.847v-7h-27.784  l30.311-19.576l-0.379-0.587h38.7V179.501z"/><text x="0" y="203" fill="#000000" font-size="5px" font-weight="bold" font-family="'Helvetica Neue', Helvetica, Arial-Unicode, Arial, Sans-serif">Created by corpus delicti</text><text x="0" y="208" fill="#000000" font-size="5px" font-weight="bold" font-family="'Helvetica Neue', Helvetica, Arial-Unicode, Arial, Sans-serif">from the Noun Project</text></svg>